<?xml version="1.0" encoding="UTF-8"?>
<svg version="1.1" xmlns="http://www.w3.org/2000/svg" width="180" height="180">
<path d="M0 0 C59.4 0 118.8 0 180 0 C180 59.4 180 118.8 180 180 C120.6 180 61.2 180 0 180 C0 120.6 0 61.2 0 0 Z " fill="#FEFEFE" transform="translate(0,0)"/>
<path d="M0 0 C1.12138618 0.01061211 1.12138618 0.01061211 2.26542664 0.0214386 C4.64023277 0.0493048 7.01263226 0.11201993 9.38671875 0.17578125 C11.00191893 0.20087457 12.61715629 0.22368594 14.23242188 0.24414062 C18.18060694 0.29910478 22.12700564 0.38531598 26.07421875 0.48828125 C26.09886449 6.45141291 26.11705275 12.4145152 26.12915039 18.37768555 C26.13419153 20.40796423 26.14102432 22.43823927 26.1496582 24.46850586 C26.16173342 27.38005472 26.16744909 30.29155575 26.171875 33.203125 C26.17703629 34.11666245 26.18219757 35.03019989 26.18751526 35.97142029 C26.18771043 38.14403552 26.1363368 40.31655421 26.07421875 42.48828125 C25.74421875 42.81828125 25.41421875 43.14828125 25.07421875 43.48828125 C23.09421875 43.48828125 21.11421875 43.48828125 19.07421875 43.48828125 C19.07421875 38.20828125 19.07421875 32.92828125 19.07421875 27.48828125 C10.82421875 27.48828125 2.57421875 27.48828125 -5.92578125 27.48828125 C-5.92578125 32.76828125 -5.92578125 38.04828125 -5.92578125 43.48828125 C-8.23578125 43.48828125 -10.54578125 43.48828125 -12.92578125 43.48828125 C-13.04961189 38.16813609 -13.14022801 32.84883411 -13.20043945 27.52758789 C-13.22554515 25.71851993 -13.2596372 23.90955303 -13.30297852 22.10083008 C-13.36380704 19.49665374 -13.39202934 16.89382094 -13.4140625 14.2890625 C-13.43986893 13.48366531 -13.46567535 12.67826813 -13.49226379 11.84846497 C-13.49428413 7.78050907 -13.22227018 5.92817749 -10.890625 2.46875 C-7.18862031 -0.00413061 -4.3002966 -0.15458277 0 0 Z " fill="#605F5F" transform="translate(39.92578125,67.51171875)"/>
<path d="M0 0 C0.77403168 0.00141495 1.54806335 0.0028299 2.34555054 0.00428772 C4.82155192 0.00989222 7.29746338 0.02244542 9.7734375 0.03515625 C11.45051953 0.04017067 13.12760297 0.04473368 14.8046875 0.04882812 C18.91930556 0.0598631 23.03385628 0.07713071 27.1484375 0.09765625 C27.1484375 2.40765625 27.1484375 4.71765625 27.1484375 7.09765625 C10.8134375 7.59265625 10.8134375 7.59265625 -5.8515625 8.09765625 C-6.1815625 17.33765625 -6.5115625 26.57765625 -6.8515625 36.09765625 C2.0584375 36.09765625 10.9684375 36.09765625 20.1484375 36.09765625 C20.1484375 32.46765625 20.1484375 28.83765625 20.1484375 25.09765625 C15.5284375 25.09765625 10.9084375 25.09765625 6.1484375 25.09765625 C6.1484375 22.78765625 6.1484375 20.47765625 6.1484375 18.09765625 C13.0784375 18.09765625 20.0084375 18.09765625 27.1484375 18.09765625 C27.22920476 21.7022692 27.28882701 25.30508188 27.3359375 28.91015625 C27.36107422 29.93431641 27.38621094 30.95847656 27.41210938 32.01367188 C27.42177734 32.99658203 27.43144531 33.97949219 27.44140625 34.9921875 C27.4571167 35.89815674 27.47282715 36.80412598 27.48901367 37.73754883 C27.1484375 40.09765625 27.1484375 40.09765625 26.15429688 41.8984375 C22.89876588 43.84478222 19.44172503 43.46240301 15.76171875 43.390625 C14.94470993 43.38638016 14.12770111 43.38213531 13.28593445 43.37776184 C10.67726643 43.36097316 8.06937188 43.32332144 5.4609375 43.28515625 C3.69206845 43.27010962 1.92318729 43.25642117 0.15429688 43.24414062 C-4.18128746 43.21106911 -8.51629386 43.15928615 -12.8515625 43.09765625 C-12.92587382 37.91987223 -12.98024058 32.74240056 -13.01635742 27.56420898 C-13.03141803 25.80373729 -13.05187076 24.04330295 -13.07788086 22.28295898 C-13.11438479 19.74844122 -13.13131604 17.21442073 -13.14453125 14.6796875 C-13.16775703 13.50440239 -13.16775703 13.50440239 -13.19145203 12.30537415 C-13.19285593 7.71813239 -12.73168686 4.72965018 -9.8515625 1.09765625 C-6.73202122 -0.46211439 -3.42196866 -0.02338501 0 0 Z " fill="#5F5E5E" transform="translate(125.8515625,67.90234375)"/>
<path d="M0 0 C1.02574883 0.00424484 1.02574883 0.00424484 2.07221985 0.00857544 C4.2527529 0.01975566 6.4328727 0.04485559 8.61328125 0.0703125 C10.09309302 0.08034512 11.57291124 0.08947048 13.05273438 0.09765625 C16.67721725 0.11968769 20.30145891 0.15420248 23.92578125 0.1953125 C23.92578125 2.5053125 23.92578125 4.8153125 23.92578125 7.1953125 C14.68578125 7.5253125 5.44578125 7.8553125 -4.07421875 8.1953125 C-4.40421875 17.4353125 -4.73421875 26.6753125 -5.07421875 36.1953125 C4.49578125 36.1953125 14.06578125 36.1953125 23.92578125 36.1953125 C23.92578125 37.8453125 23.92578125 39.4953125 23.92578125 41.1953125 C21.92578125 43.1953125 21.92578125 43.1953125 18.57763672 43.42236328 C17.14937492 43.42204625 15.72108913 43.41072611 14.29296875 43.390625 C13.1652153 43.38638016 13.1652153 43.38638016 12.01467896 43.38204956 C9.60988547 43.37084124 7.20546244 43.34573602 4.80078125 43.3203125 C3.17188037 43.31028352 1.54297367 43.30115753 -0.0859375 43.29296875 C-4.08217431 43.27089985 -8.07813369 43.23636601 -12.07421875 43.1953125 C-12.12376838 38.1599266 -12.16000912 33.1246836 -12.18408203 28.08911133 C-12.19412083 26.37717211 -12.2077547 24.66524995 -12.22509766 22.95336914 C-12.24943948 20.48840108 -12.26072313 18.02366035 -12.26953125 15.55859375 C-12.27985382 14.79694412 -12.29017639 14.03529449 -12.30081177 13.25056458 C-12.3016743 9.13741217 -12.10151475 5.82162032 -10.07421875 2.1953125 C-6.34881213 -0.28829191 -4.44358902 -0.0362742 0 0 Z " fill="#626161" transform="translate(84.07421875,67.8046875)"/>
<path d="M0 0 C1.00023193 0.00523682 2.00046387 0.01047363 3.03100586 0.01586914 C4.1105957 0.0190918 5.19018555 0.02231445 6.30249023 0.02563477 C8.00695312 0.03820312 8.00695312 0.03820312 9.74584961 0.05102539 C11.45611328 0.05779297 11.45611328 0.05779297 13.20092773 0.06469727 C16.02842379 0.07652779 18.85589306 0.09446389 21.68334961 0.11352539 C21.68334961 4.73352539 21.68334961 9.35352539 21.68334961 14.11352539 C13.43334961 14.11352539 5.18334961 14.11352539 -3.31665039 14.11352539 C-3.41430664 4.05493164 -3.41430664 4.05493164 -3.31665039 1.11352539 C-2.31665039 0.11352539 -2.31665039 0.11352539 0 0 Z " fill="#F2F2F2" transform="translate(37.316650390625,74.886474609375)"/>
</svg>
